ik_tiny_file
version=1
nRows=16
nColumns=40
inDegrees=yes
endheader
time	pelvis_tilt	pelvis_list	pelvis_rotation	pelvis_tx	pelvis_ty	pelvis_tz	hip_flexion_r	hip_adduction_r	hip_rotation_r	knee_angle_r	knee_angle_r_beta	ankle_angle_r	subtalar_angle_r	mtp_angle_r	hip_flexion_l	hip_adduction_l	hip_rotation_l	knee_angle_l	knee_angle_l_beta	ankle_angle_l	subtalar_angle_l	mtp_angle_l	lumbar_extension	lumbar_bending	lumbar_rotation	arm_flex_r	arm_add_r	arm_rot_r	elbow_flex_r	pro_sup_r	wrist_flex_r	wrist_dev_r	arm_flex_l	arm_add_l	arm_rot_l	elbow_flex_l	pro_sup_l	wrist_flex_l	wrist_dev_l
      6.28000000	     37.02223837	      1.33627323	     14.86301745	      0.00000000	      0.94000000	      0.00000000	     34.59412227	     -9.75850241	      0.00000000	     46.76066086	      0.81612749	     -4.16566360	      0.00000000	      0.00000000	     34.59412227	     -9.75850241	      0.00000000	     46.76066086	      0.81612749	     -4.16566360	      0.00000000	      0.00000000	    -34.06777917	      5.81732312	     -4.45990686	    -34.75934531	     11.87853970	     -9.21628699	     34.80947658	     43.23519485	      0.00000000	      4.98171870	     -1.20153343	     -3.64652897	     21.21379551	     68.55239649	     43.23519485	      0.00000000	      4.98171870
      6.30000000	     37.04810254	      1.26160878	     14.80202566	      0.00000000	      0.94000000	      0.00000000	     34.65190748	     -9.76175924	      0.00000000	     46.83440520	      0.81741457	     -4.17149406	      0.00000000	      0.00000000	     34.65190748	     -9.76175924	      0.00000000	     46.83440520	      0.81741457	     -4.17149406	      0.00000000	      0.00000000	    -34.01868244	      5.82316388	     -4.37968427	    -34.76696286	     11.94249166	     -9.23709509	     34.76810475	     43.25539170	      0.00000000	      4.98208642	     -0.06449130	     -3.28485234	     22.16912350	     72.46700399	     43.25539170	      0.00000000	      4.98208642
      6.32000000	     37.13197173	      1.19335170	     14.76779334	      0.00000000	      0.94000000	      0.00000000	     34.70583690	     -9.76478673	      0.00000000	     46.90310008	      0.81861353	     -4.17693226	      0.00000000	      0.00000000	     34.70583690	     -9.76478673	      0.00000000	     46.90310008	      0.81861353	     -4.17693226	      0.00000000	      0.00000000	    -33.98629254	      5.85730971	     -4.27791374	    -34.81738403	     12.04378357	     -9.30677176	     34.70673604	     43.27418745	      0.00000000	      4.98242686	      1.11807623	     -2.99281878	     22.82628851	     75.77735817	     43.27418745	      0.00000000	      4.98242686
      6.34000000	     37.18103751	      1.15765897	     14.73298757	      0.00000000	      0.94000000	      0.00000000	     34.75701101	     -9.76765769	      0.00000000	     46.96809624	      0.81974792	     -4.18209275	      0.00000000	      0.00000000	     34.75701101	     -9.76765769	      0.00000000	     46.96809624	      0.81974792	     -4.18209275	      0.00000000	      0.00000000	    -33.95750135	      5.88089888	     -4.20645907	    -34.86515489	     12.12443007	     -9.37584550	     34.67679101	     43.29201730	      0.00000000	      4.98274918	      2.13752883	     -2.86748059	     23.59113440	     78.63919709	     43.29201730	      0.00000000	      4.98274918
      6.36000000	     37.26536060	      1.12312710	     14.73348480	      0.00000000	      0.94000000	      0.00000000	     34.80537665	     -9.77036247	      0.00000000	     47.02943338	      0.82081846	     -4.18696768	      0.00000000	      0.00000000	     34.80537665	     -9.77036247	      0.00000000	     47.02943338	      0.82081846	     -4.18696768	      0.00000000	      0.00000000	    -33.82255154	      5.86146778	     -4.03226577	    -35.04436104	     12.34767362	     -9.53659939	     34.60863829	     43.30883020	      0.00000000	      4.98305186	      2.87309017	     -3.02485411	     24.37103414	     81.67494781	     43.30883020	      0.00000000	      4.98305186
      6.38000000	     37.30225541	      1.12340555	     14.72993573	      0.00000000	      0.94000000	      0.00000000	     34.81095282	     -9.77079392	      0.00000000	     47.03515721	      0.82091836	     -4.18757323	      0.00000000	      0.00000000	     34.81095282	     -9.77079392	      0.00000000	     47.03515721	      0.82091836	     -4.18757323	      0.00000000	      0.00000000	    -33.82601395	      5.86778724	     -4.00584960	    -35.07498722	     12.44881761	     -9.63286345	     34.60322049	     43.31134657	      0.00000000	      4.98310833	      3.69171340	     -3.22606053	     25.32402016	     84.63747516	     43.31134657	      0.00000000	      4.98310833
      6.40000000	     37.30205389	      1.12153514	     14.69657760	      0.00000000	      0.94000000	      0.00000000	     34.81717026	     -9.77127448	      0.00000000	     47.04153813	      0.82102973	     -4.18824834	      0.00000000	      0.00000000	     34.81717026	     -9.77127448	      0.00000000	     47.04153813	      0.82102973	     -4.18824834	      0.00000000	      0.00000000	    -33.75463316	      5.80149333	     -3.88465336	    -35.14571473	     12.61498674	     -9.73331600	     34.60621315	     43.31415034	      0.00000000	      4.98317113	      4.37033332	     -3.60381618	     26.59332157	     87.63081487	     43.31415034	      0.00000000	      4.98317113
      6.42000000	     37.29073482	      1.12129727	     14.66705473	      0.00000000	      0.94000000	      0.00000000	     34.82344838	     -9.77175907	      0.00000000	     47.04798143	      0.82114218	     -4.18892992	      0.00000000	      0.00000000	     34.82344838	     -9.77175907	      0.00000000	     47.04798143	      0.82114218	     -4.18892992	      0.00000000	      0.00000000	    -33.67421655	      5.75957348	     -3.74521454	    -35.25801257	     12.67240647	     -9.79672039	     34.66441582	     43.31697876	      0.00000000	      4.98323436	      4.92763722	     -3.67588331	     27.86757435	     89.99528310	     43.31697876	      0.00000000	      4.98323436
      6.44000000	     37.25833711	      1.09463427	     14.66242534	      0.00000000	      0.94000000	      0.00000000	     34.82867852	     -9.77216183	      0.00000000	     47.05335375	      0.82123595	     -4.18949748	      0.00000000	      0.00000000	     34.82867852	     -9.77216183	      0.00000000	     47.05335375	      0.82123595	     -4.18949748	      0.00000000	      0.00000000	    -33.63871010	      5.75230910	     -3.56882198	    -35.25559748	     12.74726412	     -9.87077822	     34.67076007	     43.31933097	      0.00000000	      4.98328682	      5.37318596	     -3.69174455	     28.86533374	     92.08879661	     43.31933097	      0.00000000	      4.98328682
      6.46000000	     37.19192412	      1.07470310	     14.65295216	      0.00000000	      0.94000000	      0.00000000	     34.83516884	     -9.77266133	      0.00000000	     47.06001727	      0.82135225	     -4.19020180	      0.00000000	      0.00000000	     34.83516884	     -9.77266133	      0.00000000	     47.06001727	      0.82135225	     -4.19020180	      0.00000000	      0.00000000	    -33.49624952	      5.70064195	     -3.32634364	    -35.32698519	     12.84019048	     -9.92726998	     34.63621946	     43.32224888	      0.00000000	      4.98335179	      5.74535700	     -3.84635746	     29.56945323	     94.02251480	     43.32224888	      0.00000000	      4.98335179
      6.48000000	     37.15184245	      1.06302634	     14.69035449	      0.00000000	      0.94000000	      0.00000000	     34.83994361	     -9.77302818	      0.00000000	     47.06492147	      0.82143784	     -4.19071980	      0.00000000	      0.00000000	     34.83994361	     -9.77302818	      0.00000000	     47.06492147	      0.82143784	     -4.19071980	      0.00000000	      0.00000000	    -33.34093280	      5.68869681	     -3.11634639	    -35.46993513	     12.88080683	     -9.98857960	     34.64056799	     43.32439285	      0.00000000	      4.98339944	      6.02126692	     -3.62763359	     30.05634200	     95.35561355	     43.32439285	      0.00000000	      4.98339944
      6.50000000	     37.08803312	      1.06791216	     14.75795392	      0.00000000	      0.94000000	      0.00000000	     34.84372195	     -9.77331817	      0.00000000	     47.06880270	      0.82150558	     -4.19112964	      0.00000000	      0.00000000	     34.84372195	     -9.77331817	      0.00000000	     47.06880270	      0.82150558	     -4.19112964	      0.00000000	      0.00000000	    -33.08731361	      5.60844918	     -2.83254483	    -35.67420366	     13.03360504	    -10.08564879	     34.59864154	     43.32608813	      0.00000000	      4.98343706	      6.24344253	     -3.28194326	     30.52096374	     95.82471685	     43.32608813	      0.00000000	      4.98343706
      6.52000000	     37.05275230	      1.06980398	     14.83790391	      0.00000000	      0.94000000	      0.00000000	     34.84816948	     -9.77365913	      0.00000000	     47.07337205	      0.82158533	     -4.19161199	      0.00000000	      0.00000000	     34.84816948	     -9.77365913	      0.00000000	     47.07337205	      0.82158533	     -4.19161199	      0.00000000	      0.00000000	    -32.78557451	      5.55652747	     -2.54125631	    -35.91905793	     13.17075281	    -10.24214830	     34.54861078	     43.32808205	      0.00000000	      4.98348124	      6.28979361	     -3.08089478	     31.10773162	     95.97099742	     43.32808205	      0.00000000	      4.98348124
      6.54000000	     37.07453256	      1.09201904	     14.94222097	      0.00000000	      0.94000000	      0.00000000	     34.85211814	     -9.77396109	      0.00000000	     47.07743392	      0.82165623	     -4.19204002	      0.00000000	      0.00000000	     34.85211814	     -9.77396109	      0.00000000	     47.07743392	      0.82165623	     -4.19204002	      0.00000000	      0.00000000	    -32.61766226	      5.55220571	     -2.40804615	    -36.12567078	     13.21661560	    -10.30676706	     34.55771767	     43.32984890	      0.00000000	      4.98352030	      6.21201389	     -2.93414753	     31.49535829	     96.11656848	     43.32984890	      0.00000000	      4.98352030
      6.56000000	     37.10106143	      1.15653270	     15.02103838	      0.00000000	      0.94000000	      0.00000000	     34.85525477	     -9.77420056	      0.00000000	     47.08066262	      0.82171258	     -4.19237992	      0.00000000	      0.00000000	     34.85525477	     -9.77420056	      0.00000000	     47.08066262	      0.82171258	     -4.19237992	      0.00000000	      0.00000000	    -32.60085751	      5.54912420	     -2.39198535	    -36.18751724	     13.18732209	    -10.34540338	     34.53469737	     43.33125066	      0.00000000	      4.98355124	      6.03873169	     -2.88282262	     31.65111803	     96.37077948	     43.33125066	      0.00000000	      4.98355124
      6.58000000	     37.09215275	      1.18779652	     15.08874145	      0.00000000	      0.94000000	      0.00000000	     34.85643450	     -9.77429020	      0.00000000	     47.08188123	      0.82173385	     -4.19250761	      0.00000000	      0.00000000	     34.85643450	     -9.77429020	      0.00000000	     47.08188123	      0.82173385	     -4.19250761	      0.00000000	      0.00000000	    -32.56979816	      5.51248804	     -2.35304702	    -36.21846102	     13.21776592	    -10.31088941	     34.54250931	     43.33177581	      0.00000000	      4.98356279	      6.00393310	     -2.80770262	     31.70979195	     96.36257992	     43.33177581	      0.00000000	      4.98356279
